<svg xmlns="http://www.w3.org/2000/svg" fill="none" viewBox="0 0 226 350" height="350" width="226">
<path fill="#DCED5A" d="M163.104 30.344C164.865 30.2991 166.573 29.7329 168.012 28.717C169.452 27.7011 170.557 26.2813 171.189 24.637C171.821 22.9927 171.951 21.1979 171.563 19.4796C171.175 17.7614 170.286 16.1969 169.008 14.984C167.731 13.7711 166.122 12.9644 164.386 12.6659C162.65 12.3674 160.864 12.5905 159.255 13.307C157.646 14.0235 156.285 15.2012 155.345 16.6911C154.406 18.181 153.929 19.9162 153.975 21.6772C154.038 24.0367 155.034 26.2749 156.746 27.9001C158.458 29.5252 160.745 30.4043 163.104 30.344Z"></path>
<path fill="#F6F1E4" d="M144.09 100.002C142.418 100.542 140.884 101.44 139.595 102.634L139.301 102.872C132.377 108.36 124.26 112.146 115.605 113.924C106.949 115.702 97.9976 115.422 89.4703 113.107L89.0922 113.009C87.6004 112.486 86.0234 112.249 84.4438 112.309C83.4136 112.358 82.4243 112.726 81.6137 113.364C80.8031 114.001 80.2115 114.876 79.9213 115.865C79.7789 116.848 79.94 117.85 80.3829 118.738C80.8258 119.626 81.5294 120.358 82.3995 120.836C84.8358 122.306 88.1681 122.628 91.1084 122.908L93.4047 123.146C97.2884 123.707 101.201 124.044 105.124 124.154C108.883 124.245 112.558 125.285 115.807 127.178C119.699 129.307 122.92 135.929 123.984 138.114C131.167 152.899 130.914 172.235 123.284 191.151C122.052 194.203 120.889 198.516 122.29 201.722C122.619 202.48 123.103 203.16 123.71 203.719C124.318 204.279 125.036 204.705 125.818 204.97C127.057 205.415 128.405 205.454 129.668 205.082C130.375 204.887 131.049 204.589 131.671 204.2C132.512 203.686 133.256 203.027 133.869 202.254C135.44 200.009 136.47 197.431 136.879 194.721C140.99 174.862 139.009 154.224 131.195 135.509C129.472 131.309 127.876 126.52 128.982 121.97C129.872 118.761 131.797 115.936 134.457 113.933C137.193 111.882 140.29 110.363 143.586 109.453L143.978 109.341C145.367 109.007 146.685 108.429 147.87 107.632C148.882 107.137 149.656 106.259 150.021 105.193C150.386 104.127 150.312 102.96 149.816 101.948C149.321 100.936 148.443 100.162 147.377 99.7974C146.311 99.4324 145.144 99.5059 144.132 100.002"></path>
<path fill="#F6F1E4" d="M142.69 82.5408C142.141 81.9629 141.438 81.5533 140.665 81.3599C139.891 81.1665 139.079 81.1973 138.322 81.4487C137.005 81.8825 135.787 82.5725 134.737 83.4789L134.555 83.6189C124.429 91.3456 111.841 95.132 99.1318 94.274C91.2435 93.7305 83.5691 91.4703 76.6455 87.6514C56.1194 76.4082 41.88 49.3294 53.1931 26.9411C56.9179 19.6762 62.9087 13.8231 70.2583 10.2684C77.6078 6.71361 85.9156 5.65085 93.9233 7.24105C96.8978 7.83401 99.7926 8.77387 102.548 10.0413C103.407 10.4733 104.235 10.9645 105.026 11.5115C106.703 12.8019 108.652 13.6926 110.725 14.1158C111.712 14.2554 112.716 14.0233 113.541 13.4644C114.366 12.9055 114.955 12.0597 115.191 11.0914C115.198 11.0169 115.198 10.9419 115.191 10.8674C115.317 9.6773 114.883 7.94112 112.125 6.45697C93.2792 -3.75008 69.4908 -1.69187 54.2852 11.4695C46.4024 18.2882 41.3759 28.2712 39.7378 40.3825C38.652 49.4004 39.695 58.5473 42.7831 67.0893C45.8711 75.6313 50.9183 83.3306 57.5196 89.5695C69.705 100.479 85.7106 106.126 102.044 105.279C106.219 105.096 110.366 104.495 114.421 103.487C123.833 101.174 132.622 96.8249 140.17 90.7457C141.467 89.8305 142.512 88.6024 143.208 87.1753C143.577 86.4366 143.727 85.6077 143.641 84.7864C143.554 83.9652 143.234 83.186 142.718 82.5408"></path>
<path fill="#F6F1E4" d="M182.636 51.3453C179.192 47.733 174.235 45.2827 167.668 43.8966C165.008 43.3365 162.068 42.9585 159.016 42.4964C148.164 41.0963 136.011 40.0042 133.295 29.8951C128.842 13.3454 147.66 8.17888 146.498 4.28648C146.12 2.99835 145.588 3.12436 144.272 2.77433C139.652 1.5282 131.027 7.47881 130.033 8.37491C125.468 12.1238 122.516 17.4812 121.786 23.3424C120.876 31.9953 125.986 40.8723 134.387 45.4087C139.988 48.447 146.456 49.1751 152.589 49.8752C155.137 50.1552 157.769 50.4632 160.248 50.9113C170.693 52.8435 176.293 57.0999 177.343 63.9326C178.744 73.2156 171.239 81.1544 167.948 84.1367C164.63 87.0309 161.091 89.6618 157.363 92.0055C156.339 92.6326 155.604 93.6392 155.319 94.8058C155.226 95.1992 155.219 95.6082 155.299 96.0046C155.378 96.4009 155.543 96.7754 155.781 97.1021C155.91 97.2786 156.056 97.4426 156.215 97.5921C156.813 98.0311 157.517 98.3039 158.255 98.3826C158.993 98.4613 159.738 98.3431 160.416 98.0402C161.144 97.8161 161.816 97.5781 162.544 97.3121C171.829 93.7718 179.435 86.8558 183.84 77.9481C189.091 67.601 188.643 57.66 182.636 51.3453Z"></path>
<path fill="#F6F1E4" d="M176.222 344.169C176.421 347.884 174.388 349.871 171.86 350L171.449 348.813C173.141 348.719 174.188 347.908 174.682 346.897C174.564 347.073 174.282 347.32 173.565 347.355C172.119 347.437 170.649 346.661 170.532 344.534C170.426 342.511 171.578 341.559 173.224 341.477C174.858 341.383 176.128 342.218 176.222 344.169ZM173.494 346.273C174.399 346.226 175.093 345.486 175.034 344.345C174.975 343.311 174.458 342.558 173.294 342.617C172.142 342.688 171.707 343.487 171.754 344.522C171.813 345.603 172.518 346.344 173.494 346.273Z"></path>
<path fill="#F6F1E4" d="M166.846 344.169C167.046 347.884 165.012 349.871 162.485 350L162.073 348.813C163.766 348.719 164.812 347.908 165.306 346.897C165.189 347.073 164.907 347.32 164.189 347.355C162.743 347.437 161.274 346.661 161.156 344.534C161.05 342.511 162.203 341.559 163.848 341.477C165.483 341.383 166.752 342.218 166.846 344.169ZM164.119 346.273C165.024 346.226 165.718 345.486 165.659 344.345C165.6 343.311 165.083 342.558 163.919 342.617C162.767 342.688 162.332 343.487 162.379 344.522C162.438 345.603 163.143 346.344 164.119 346.273Z"></path>
<path fill="#F6F1E4" d="M157.471 344.169C157.671 347.884 155.637 349.871 153.109 350L152.698 348.813C154.391 348.719 155.437 347.908 155.931 346.897C155.813 347.073 155.531 347.32 154.814 347.355C153.368 347.437 151.899 346.661 151.781 344.534C151.675 342.511 152.827 341.559 154.473 341.477C156.107 341.383 157.377 342.218 157.471 344.169ZM154.744 346.273C155.649 346.226 156.342 345.486 156.284 344.345C156.225 343.311 155.708 342.558 154.544 342.617C153.392 342.688 152.957 343.487 153.004 344.522C153.062 345.603 153.768 346.344 154.744 346.273Z"></path>
<path fill="#F6F1E4" d="M147.984 342.182V349.271C147.984 349.471 147.996 349.659 148.031 349.859H146.585C146.62 349.659 146.632 349.471 146.632 349.271V343.229C146.35 343.652 145.703 343.816 145.703 343.816L144.951 342.852C145.856 342.511 146.585 341.524 146.585 341.524H148.031C147.984 341.735 147.984 341.994 147.984 342.182Z"></path>
<path fill="#F6F1E4" d="M134.995 347.602V349.271C134.995 349.471 135.007 349.671 135.042 349.859H133.573C133.596 349.671 133.62 349.471 133.62 349.271V347.59C133.561 347.355 131.61 341.712 131.551 341.524H132.973C132.973 341.524 133.02 341.735 133.138 342.112L134.302 345.697L135.466 342.112C135.56 341.759 135.595 341.524 135.595 341.524H137.065C136.994 341.712 135.007 347.531 134.995 347.602Z"></path>
<path fill="#F6F1E4" d="M128.409 342.182L128.397 349.271C128.397 349.471 128.421 349.671 128.456 349.859H126.704C126.728 349.706 126.751 349.542 126.681 349.224L124.67 343.358L124.694 349.271C124.694 349.471 124.706 349.671 124.741 349.859H123.271C123.295 349.671 123.318 349.471 123.318 349.271V342.182C123.318 341.959 123.295 341.735 123.271 341.524H125.564L127.116 346.415L127.022 342.182C127.022 341.959 127.01 341.735 126.975 341.524H128.456C128.409 341.735 128.409 341.994 128.409 342.182Z"></path>
<path fill="#F6F1E4" d="M120.1 349.859H118.536C118.583 349.695 118.536 349.565 118.501 349.271L118.336 348.413H116.161L115.985 349.271C115.95 349.565 115.903 349.695 115.95 349.859H114.398C114.468 349.671 114.527 349.495 114.574 349.271L116.549 341.524H118.03L119.923 349.271C119.97 349.495 120.029 349.671 120.1 349.859ZM116.42 347.12H118.078L117.243 343.487L116.42 347.12Z"></path>
<path fill="#F6F1E4" d="M110.358 342.135C110.358 341.806 110.617 341.547 110.946 341.547C111.275 341.547 111.534 341.818 111.534 342.147C111.534 342.265 111.534 342.394 111.522 342.523C111.522 342.57 111.522 342.617 111.51 342.676C111.416 343.205 110.922 343.581 110.382 343.581H110.358V342.135Z"></path>
<path fill="#F6F1E4" d="M105.385 348.589L108.172 348.542L107.983 349.859H103.963C103.986 349.671 104.01 349.471 104.01 349.271V342.182C104.01 341.959 103.986 341.735 103.963 341.524H105.432C105.385 341.735 105.385 341.994 105.385 342.182V348.589Z"></path>
<path fill="#F6F1E4" d="M93.951 342.817V349.271C93.951 349.471 93.9745 349.671 93.998 349.859H92.5284C92.5637 349.671 92.5755 349.471 92.5755 349.271V342.817L90.6827 342.852L90.8708 341.524H95.6792L95.879 342.852L93.951 342.817Z"></path>
<path fill="#F6F1E4" d="M89.0898 349.859H87.5262C87.5732 349.695 87.5262 349.565 87.4909 349.271L87.3263 348.413H85.1514L84.975 349.271C84.9398 349.565 84.8927 349.695 84.9398 349.859H83.3879C83.4585 349.671 83.5172 349.495 83.5643 349.271L85.5393 341.524H87.0206L88.9134 349.271C88.9605 349.495 89.0192 349.671 89.0898 349.859ZM85.41 347.12H87.0677L86.233 343.487L85.41 347.12Z"></path>
<path fill="#F6F1E4" d="M77.4896 341.524C78.9827 341.524 80.946 342.782 80.946 345.744C80.946 348.813 78.8651 349.859 77.6072 349.859C77.1016 349.859 75.7497 349.859 75.7497 349.859C75.7732 349.671 75.7967 349.471 75.7967 349.271V342.182C75.7967 341.959 75.7732 341.735 75.7497 341.524H77.4896ZM77.4778 348.589C78.242 348.578 79.5822 347.72 79.5822 345.78C79.5822 343.805 78.5242 342.852 77.3485 342.852H77.1722V348.589H77.4778Z"></path>
<path fill="#F6F1E4" d="M71.9023 342.182L71.8905 349.271C71.8905 349.471 71.914 349.671 71.9493 349.859H70.1976C70.2211 349.706 70.2446 349.542 70.1741 349.224L68.1637 343.358L68.1872 349.271C68.1872 349.471 68.199 349.671 68.2343 349.859H66.7647C66.7882 349.671 66.8117 349.471 66.8117 349.271V342.182C66.8117 341.959 66.7882 341.735 66.7647 341.524H69.0572L70.6091 346.415L70.515 342.182C70.515 341.959 70.5033 341.735 70.468 341.524H71.9493C71.9023 341.735 71.9023 341.994 71.9023 342.182Z"></path>
<path fill="#F6F1E4" d="M63.0256 342.182V345.791C63.0256 348.695 62.4025 349.977 60.3216 349.977C58.229 349.977 57.6059 348.695 57.6059 345.791H57.6177V342.182C57.6177 341.959 57.5942 341.735 57.5706 341.524H59.0402C58.9932 341.735 58.9932 341.994 58.9932 342.182V345.944C59.0167 347.555 59.2165 348.731 60.3216 348.731C61.415 348.731 61.6148 347.555 61.6501 345.968V342.182C61.6501 341.994 61.6501 341.735 61.6031 341.524H63.0726C63.0491 341.735 63.0256 341.959 63.0256 342.182Z"></path>
<path fill="#F6F1E4" d="M51.3769 342.817V344.98H53.9046V346.403H51.3769V349.295C51.3769 349.495 51.3887 349.683 51.424 349.883H49.9544C49.9779 349.683 50.0014 349.495 50.0014 349.295V342.206C50.0014 341.982 49.9779 341.759 49.9544 341.547H54.4218L54.5394 342.864L51.3769 342.817Z"></path>
<path fill="#F6F1E4" d="M32.5131 303.617V316.467C32.5131 316.865 32.5599 317.262 32.6067 317.637H29.681C29.7512 317.262 29.7747 316.865 29.7747 316.467V303.617L26.0063 303.687L26.3808 301.042H35.9537L36.3516 303.687L32.5131 303.617Z"></path>
<path fill="#F6F1E4" d="M46.4455 309.585V315.156L52.7416 315.039L52.5075 317.684H43.6134C43.6602 317.286 43.707 316.911 43.707 316.513V302.4C43.707 301.955 43.6602 301.51 43.6134 301.089H52.5075L52.7416 303.711L46.4455 303.617V306.753H51.4777V309.585H46.4455Z"></path>
<path fill="#F6F1E4" d="M71.0256 302.353L71.0022 316.467C71.0022 316.865 71.049 317.262 71.1192 317.637H67.6318C67.6786 317.333 67.7254 317.005 67.5849 316.373L63.5826 304.694L63.6294 316.467C63.6294 316.865 63.6528 317.262 63.723 317.637H60.7973C60.8441 317.262 60.8909 316.865 60.8909 316.467V302.353C60.8909 301.908 60.8441 301.464 60.7973 301.042H65.3614L68.451 310.779L68.2637 302.353C68.2637 301.908 68.2403 301.464 68.1701 301.042H71.1192C71.0256 301.464 71.0256 301.979 71.0256 302.353Z"></path>
<path fill="#F6F1E4" d="M90.0838 302.353L90.0604 316.467C90.0604 316.865 90.1072 317.262 90.1774 317.637H86.69C86.7368 317.333 86.7836 317.005 86.6431 316.373L82.6408 304.694L82.6876 316.467C82.6876 316.865 82.711 317.262 82.7812 317.637H79.8555C79.9023 317.262 79.9491 316.865 79.9491 316.467V302.353C79.9491 301.908 79.9023 301.464 79.8555 301.042H84.4196L87.5091 310.779L87.3219 302.353C87.3219 301.908 87.2985 301.464 87.2283 301.042H90.1774C90.0838 301.464 90.0838 301.979 90.0838 302.353Z"></path>
<path fill="#F6F1E4" d="M101.746 302.353V316.467C101.746 316.865 101.769 317.262 101.839 317.637H98.9137C98.9605 317.262 99.0073 316.865 99.0073 316.467V302.353C99.0073 301.908 98.9605 301.464 98.9137 301.042H101.839C101.746 301.464 101.746 301.979 101.746 302.353Z"></path>
<path fill="#F6F1E4" d="M116.581 308.041C117.939 308.719 120.209 309.89 120.209 313.12C120.209 314.29 119.882 315.53 118.945 316.467C117.962 317.473 116.464 317.918 114.92 317.894C112.743 317.848 110.8 316.677 109.583 314.922L110.777 312.581C111.69 314.079 113.234 315.39 115.037 315.437C116.558 315.46 117.705 314.664 117.588 312.839C117.494 311.013 115.622 310.498 112.93 308.766C109.934 306.823 110.332 302.774 112.86 301.23C115.318 299.732 118.758 301.37 119.601 302.189L118.407 304.483C117.541 303.945 116.675 303.289 115.318 303.289C113.983 303.289 113.586 304.225 113.586 305.021C113.586 305.84 113.82 306.683 116.581 308.041Z"></path>
<path fill="#F6F1E4" d="M146.097 315.156C147.314 315.156 148.32 314.688 148.32 314.688L149.327 317.122C149.327 317.122 147.946 317.918 146.097 317.918C143.686 317.918 138.818 316.748 138.818 309.492C138.818 302.236 144.014 300.785 146.05 300.785C147.852 300.785 149.373 301.651 149.373 301.651L148.461 304.366C148.461 304.366 147.337 303.687 146.097 303.687C144.856 303.687 141.65 304.553 141.65 309.375C141.65 314.384 144.248 315.156 146.097 315.156Z"></path>
<path fill="#F6F1E4" d="M159.876 315.109L165.423 315.015L165.048 317.637H157.044C157.091 317.262 157.137 316.865 157.137 316.467V302.353C157.137 301.908 157.091 301.464 157.044 301.042H159.969C159.876 301.464 159.876 301.979 159.876 302.353V315.109Z"></path>
<path fill="#F6F1E4" d="M182.454 302.353V309.539C182.454 315.32 181.214 317.871 177.071 317.871C172.905 317.871 171.664 315.32 171.664 309.539H171.688V302.353C171.688 301.908 171.641 301.464 171.594 301.042H174.52C174.426 301.464 174.426 301.979 174.426 302.353V309.843C174.473 313.049 174.871 315.39 177.071 315.39C179.248 315.39 179.646 313.049 179.716 309.89V302.353C179.716 301.979 179.716 301.464 179.622 301.042H182.548C182.501 301.464 182.454 301.908 182.454 302.353Z"></path>
<path fill="#F6F1E4" d="M197.973 308.556C199.307 309.211 200.337 310.428 200.337 312.769C200.337 317.356 196.78 317.637 193.994 317.637H191.069C191.116 317.262 191.162 316.865 191.162 316.467V302.353C191.162 301.908 191.116 301.464 191.069 301.042H193.901C195.937 301.042 199.05 301.744 199.05 305.396C199.05 306.917 198.652 307.924 197.973 308.556ZM193.901 303.196V307.76C194.954 307.76 196.499 307.666 196.499 305.396C196.499 303.102 194.463 303.196 193.901 303.196ZM193.901 315.507C196.124 315.484 197.716 315.133 197.716 312.745C197.716 310.334 195.773 309.796 193.901 309.936V315.507Z"></path>
<path fill="#F6F1E4" d="M54.8023 228.695H61.3718L67.7654 219.333H58.9376L54.8023 228.695Z"></path>
<path fill="#F6F1E4" d="M22.6641 256.291C26.8724 258.395 33.9105 262.023 33.9105 272.036C33.9105 275.663 32.8947 279.509 29.9924 282.411C26.945 285.531 22.3013 286.91 17.5125 286.837C10.7647 286.692 4.7424 283.064 0.969421 277.622L4.66985 270.367C7.49958 275.01 12.2884 279.074 17.8753 279.219C22.5915 279.291 26.1468 276.824 25.784 271.165C25.4938 265.505 19.6892 263.909 11.3451 258.54C2.05778 252.518 3.29126 239.965 11.1275 235.176C18.746 230.533 29.4119 235.612 32.024 238.151L28.3235 245.262C25.6389 243.593 22.9543 241.561 18.746 241.561C14.6102 241.561 13.3767 244.464 13.3767 246.931C13.3767 249.47 14.1023 252.082 22.6641 256.291Z"></path>
<path fill="#F6F1E4" d="M60.6076 233.798C70.1852 233.798 79.4 242.142 79.4 260.934C79.4 278.856 71.4912 286.765 60.6076 286.765C49.7966 286.765 41.8878 278.856 41.8878 260.934C41.8878 242.142 51.1026 233.798 60.6076 233.798ZM60.6076 279.074C67.6457 279.074 70.6205 271.31 70.6205 260.934C70.6205 250.051 66.5573 242.287 60.6076 242.432C54.7305 242.505 50.6673 250.051 50.6673 260.934C50.6673 271.31 53.5695 279.074 60.6076 279.074Z"></path>
<path fill="#F6F1E4" d="M99.1707 278.203L116.367 277.913L115.206 286.039H90.3913C90.5364 284.878 90.6815 283.645 90.6815 282.411V238.659C90.6815 237.28 90.5364 235.902 90.3913 234.596H99.461C99.1707 235.902 99.1707 237.498 99.1707 238.659V278.203Z"></path>
<path fill="#F6F1E4" d="M133.182 278.203L150.378 277.913L149.217 286.039H124.403C124.548 284.878 124.693 283.645 124.693 282.411V238.659C124.693 237.28 124.548 235.902 124.403 234.596H133.472C133.182 235.902 133.182 237.498 133.182 238.659V278.203Z"></path>
<path fill="#F6F1E4" d="M167.193 261.079V278.348L186.711 277.985L185.986 286.184H158.414C158.559 284.951 158.704 283.79 158.704 282.556V238.804C158.704 237.426 158.559 236.047 158.414 234.741H185.986L186.711 242.867L167.193 242.577V252.3H182.793V261.079H167.193Z"></path>
<path fill="#F6F1E4" d="M223.511 282.411C224.019 283.645 224.672 284.878 225.397 286.039H216.255C215.965 284.878 215.529 283.645 215.022 282.411L211.684 274.43C209.435 275.155 207.403 275.446 205.952 275.446V282.411C205.952 283.645 206.024 284.878 206.242 286.039H197.172C197.318 284.878 197.463 283.645 197.463 282.411V238.659C197.463 237.28 197.318 235.902 197.172 234.596H205.952C212.264 234.596 224.672 237.426 224.672 254.622C224.672 262.458 221.987 267.392 218.504 270.584L223.511 282.411ZM205.952 242.795V267.755C209.507 267.537 216.836 264.997 216.836 254.622C216.836 244.246 209.87 242.867 205.952 242.795Z"></path>
</svg>
